[Header]
FileType HTR
DataType HTRS
FileVersion 1
NumSegments 64
NumFrames 3
DataFrameRate 24
EulerRotationOrder ZYX
CalibrationUnits mm
RotationUnits Degrees
GlobalAxisofGravity Y
BoneLengthAxis Y
ScaleFactor 1.0
[SegmentNames&Hierarchy]
Hips	GLOBAL
Spine	Hips
Spine1	Spine
Spine2	Spine1
Neck	Spine2
Head	Neck
LeftEye	Head
RightEye	Head
LeftShoulder	Spine2
LeftArm	LeftShoulder
LeftForeArm	LeftArm
LeftHand	LeftForeArm
LeftHandThumb1	LeftHand
LeftHandThumb2	LeftHandThumb1
LeftHandThumb3	LeftHandThumb2
LeftHandThumb4	LeftHandThumb3
LeftHandIndex1	LeftHand
LeftHandIndex2	LeftHandIndex1
LeftHandIndex3	LeftHandIndex2
LeftHandIndex4	LeftHandIndex3
LeftHandMiddle1	LeftHand
LeftHandMiddle2	LeftHandMiddle1
LeftHandMiddle3	LeftHandMiddle2
LeftHandMiddle4	LeftHandMiddle3
LeftHandRing1	LeftHand
LeftHandRing2	LeftHandRing1
LeftHandRing3	LeftHandRing2
LeftHandRing4	LeftHandRing3
LeftHandPinky1	LeftHand
LeftHandPinky2	LeftHandPinky1
LeftHandPinky3	LeftHandPinky2
LeftHandPinky4	LeftHandPinky3
RightShoulder	Spine2
RightArm	RightShoulder
RightForeArm	RightArm
RightHand	RightForeArm
RightHandPinky1	RightHand
RightHandPinky2	RightHandPinky1
RightHandPinky3	RightHandPinky2
RightHandPinky4	RightHandPinky3
RightHandRing1	RightHand
RightHandRing2	RightHandRing1
RightHandRing3	RightHandRing2
RightHandRing4	RightHandRing3
RightHandMiddle1	RightHand
RightHandMiddle2	RightHandMiddle1
RightHandMiddle3	RightHandMiddle2
RightHandMiddle4	RightHandMiddle3
RightHandIndex1	RightHand
RightHandIndex2	RightHandIndex1
RightHandIndex3	RightHandIndex2
RightHandIndex4	RightHandIndex3
RightHandThumb1	RightHand
RightHandThumb2	RightHandThumb1
RightHandThumb3	RightHandThumb2
RightHandThumb4	RightHandThumb3
LeftUpLeg	Hips
LeftLeg	LeftUpLeg
LeftFoot	LeftLeg
LeftToeBase	LeftFoot
RightUpLeg	Hips
RightLeg	RightUpLeg
RightFoot	RightLeg
RightToeBase	RightFoot
[BasePosition]
Hips	0	0	0	0	0	0	1
Spine	0	0	0	0	0	0	1
Spine1	0	0	0	0	0	0	1
Spine2	0	0	0	0	0	0	1
Neck	0	0	0	0	0	0	1
Head	0	0	0	0	0	0	1
LeftEye	0	0	0	0	0	0	1
RightEye	0	0	0	0	0	0	1
LeftShoulder	0	0	0	0	0	0	1
LeftArm	0	0	0	0	0	0	1
LeftForeArm	0	0	0	0	0	0	1
LeftHand	0	0	0	0	0	0	1
LeftHandThumb1	0	0	0	0	0	0	1
LeftHandThumb2	0	0	0	0	0	0	1
LeftHandThumb3	0	0	0	0	0	0	1
LeftHandThumb4	0	0	0	0	0	0	1
LeftHandIndex1	0	0	0	0	0	0	1
LeftHandIndex2	0	0	0	0	0	0	1
LeftHandIndex3	0	0	0	0	0	0	1
LeftHandIndex4	0	0	0	0	0	0	1
LeftHandMiddle1	0	0	0	0	0	0	1
LeftHandMiddle2	0	0	0	0	0	0	1
LeftHandMiddle3	0	0	0	0	0	0	1
LeftHandMiddle4	0	0	0	0	0	0	1
LeftHandRing1	0	0	0	0	0	0	1
LeftHandRing2	0	0	0	0	0	0	1
LeftHandRing3	0	0	0	0	0	0	1
LeftHandRing4	0	0	0	0	0	0	1
LeftHandPinky1	0	0	0	0	0	0	1
LeftHandPinky2	0	0	0	0	0	0	1
LeftHandPinky3	0	0	0	0	0	0	1
LeftHandPinky4	0	0	0	0	0	0	1
RightShoulder	0	0	0	0	0	0	1
RightArm	0	0	0	0	0	0	1
RightForeArm	0	0	0	0	0	0	1
RightHand	0	0	0	0	0	0	1
RightHandPinky1	0	0	0	0	0	0	1
RightHandPinky2	0	0	0	0	0	0	1
RightHandPinky3	0	0	0	0	0	0	1
RightHandPinky4	0	0	0	0	0	0	1
RightHandRing1	0	0	0	0	0	0	1
RightHandRing2	0	0	0	0	0	0	1
RightHandRing3	0	0	0	0	0	0	1
RightHandRing4	0	0	0	0	0	0	1
RightHandMiddle1	0	0	0	0	0	0	1
RightHandMiddle2	0	0	0	0	0	0	1
RightHandMiddle3	0	0	0	0	0	0	1
RightHandMiddle4	0	0	0	0	0	0	1
RightHandIndex1	0	0	0	0	0	0	1
RightHandIndex2	0	0	0	0	0	0	1
RightHandIndex3	0	0	0	0	0	0	1
RightHandIndex4	0	0	0	0	0	0	1
RightHandThumb1	0	0	0	0	0	0	1
RightHandThumb2	0	0	0	0	0	0	1
RightHandThumb3	0	0	0	0	0	0	1
RightHandThumb4	0	0	0	0	0	0	1
LeftUpLeg	0	0	0	0	0	0	1
LeftLeg	0	0	0	0	0	0	1
LeftFoot	0	0	0	0	0	0	1
LeftToeBase	0	0	0	0	0	0	1
RightUpLeg	0	0	0	0	0	0	1
RightLeg	0	0	0	0	0	0	1
RightFoot	0	0	0	0	0	0	1
RightToeBase	0	0	0	0	0	0	1
[Hips]
10	19.17550468	858.4207153	1655.453613	19.96634293	14.95706367	1.586429238	1.0
11	18.49484634	885.0426636	1868.583374	20.49419975	9.585157394	-4.40474081	1.0
12	15.82304573	909.0686646	2075.29834	21.89463806	1.464648962	-8.759869576	1.0
[Spine]
10	0	101.8159943	1.315000057	13.17984867	-13.37329197	-1.423333049	1.0
11	0	101.8159943	1.315000057	10.62399292	-15.69609737	3.778282881	1.0
12	0	101.8159943	1.315000057	9.493026733	-13.46655369	6.232953548	1.0
[Spine1]
10	0	100.8349991	-10.00800037	1.0356071	-3.564133883	-0.2056651264	1.0
11	0	100.8349991	-10.00800037	0.7176865339	-4.163976192	0.3512280285	1.0
12	0	100.8349991	-10.00800037	0.9590256214	-3.585774422	0.6703355312	1.0
[Spine2]
10	0	91	-13.73399925	1.0596205	-3.545236349	-0.2106989324	1.0
11	0	91	-13.73399925	0.7262623906	-4.163228989	0.3270651996	1.0
12	0	91	-13.73399925	0.9560935497	-3.583900213	0.6674147844	1.0
[Neck]
10	0	166.7169952	-25.16200066	-6.528571606	-0.7791372538	1.56287384	1.0
11	0	166.7169952	-25.16200066	-6.29645443	-0.05282891542	2.222689629	1.0
12	0	166.7169952	-25.16200066	-6.325126171	0.3037155271	2.476438046	1.0
[Head]
10	0	96.17900085	16.84999847	-23.60949516	2.587795258	10.28256035	1.0
11	0	96.17900085	16.84999847	-19.44261932	10.91226101	6.578326225	1.0
12	0	96.17900085	16.84999847	-19.37723732	16.39883995	3.575473547	1.0
[LeftEye]
10	30.6760006	64.09500122	92.83599854	0	0	0	1.0
11	30.6760006	64.09500122	92.83599854	0	0	0	1.0
12	30.6760006	64.09500122	92.83599854	0	0	0	1.0
[RightEye]
10	-30.6760006	64.09500122	92.83499908	0	0	0	1.0
11	-30.6760006	64.09500122	92.83499908	0	0	0	1.0
12	-30.6760006	64.09500122	92.83499908	0	0	0	1.0
[LeftShoulder]
10	45.70400238	109.4599991	-26.28000069	2.238977432	-7.915960789	-13.05853939	1.0
11	45.70400238	109.4599991	-26.28000069	1.436476827	-4.848415852	-10.3018713	1.0
12	45.70400238	109.4599991	-26.28000069	0.8252537251	-1.331481457	-10.04825497	1.0
[LeftArm]
10	105.923996	-5.24600029	-22.32099915	-7.167201996	-35.41507721	-27.35359764	1.0
11	105.923996	-5.24600029	-22.32099915	-15.51708221	-29.76203537	-22.38391113	1.0
12	105.923996	-5.24600029	-22.32099915	-15.8455162	-25.49866104	-21.90418625	1.0
[LeftForeArm]
10	278.414978	-0.0009999999311	0	0.01165771484	-90.03178406	0.001571655273	1.0
11	278.414978	-0.0009999999311	0	-6.10361385e-05	-102.0972824	-0.0001983644324	1.0
12	278.414978	-0.0009999999311	0	1.525878724e-05	-107.2977066	-0.0002288818359	1.0
[LeftHand]
10	283.2879944	0	0	4.649320602	-35.46789169	29.45474815	1.0
11	283.2879944	0	0	3.528723717	-33.9264183	32.31064606	1.0
12	283.2879944	0	0	3.079560518	-31.79584885	31.38269997	1.0
[LeftHandThumb1]
10	24.6609993	-15.75	26.8239994	-7.687894821	-2.87317729	19.62811661	1.0
11	24.6609993	-15.75	26.8239994	-7.687894821	-2.87317729	19.62811661	1.0
12	24.6609993	-15.75	26.8239994	-7.687894821	-2.87317729	19.62811661	1.0
[LeftHandThumb2]
10	32.29800034	-18.64699936	18.64699936	10.34469986	28.52138519	-8.952122688	1.0
11	32.29800034	-18.64699936	18.64699936	10.13599491	26.83919334	-8.661568642	1.0
12	32.29800034	-18.64699936	18.64699936	10.56736755	30.16180611	-9.220703125	1.0
[LeftHandThumb3]
10	26.52600098	-15.31499958	15.31499958	-25.26945114	-36.77634048	47.18146896	1.0
11	26.52600098	-15.31499958	15.31499958	-24.51820564	-36.37113571	45.74108887	1.0
12	26.52600098	-15.31499958	15.31499958	-23.84593773	-35.93213272	44.55176544	1.0
[LeftHandThumb4]
10	19.54599953	-11.28499985	11.28499985	0	0	0	1.0
11	19.54599953	-11.28499985	11.28499985	0	0	0	1.0
12	19.54599953	-11.28499985	11.28499985	0	0	0	1.0
[LeftHandIndex1]
10	91.09299469	-5.170999527	22.60099792	4.414509296	-6.573975086	-18.54190063	1.0
11	91.09299469	-5.170999527	22.60099792	4.715690136	-7.095255852	-15.1852808	1.0
12	91.09299469	-5.170999527	22.60099792	4.847959995	-7.781426907	-13.65462112	1.0
[LeftHandIndex2]
10	36.76399994	0	0	-5.116024494	5.782034874	-82.99528503	1.0
11	36.76399994	0	0	-5.136330605	5.784478664	-83.19677734	1.0
12	36.76399994	0	0	-5.149548531	5.7860322	-83.32792664	1.0
[LeftHandIndex3]
10	28.83100128	0	0	-0.8983079195	3.111680269	-32.19866562	1.0
11	28.83100128	0	0	-0.8976539373	3.110660076	-32.18679047	1.0
12	28.83100128	0	0	-0.8965775371	3.108944654	-32.16687393	1.0
[LeftHandIndex4]
10	23.92700005	0	0	0	0	0	1.0
11	23.92700005	0	0	0	0	0	1.0
12	23.92700005	0	0	0	0	0	1.0
[LeftHandMiddle1]
10	95.33399963	0	0	-4.24546957	-7.527443409	-54.20305252	1.0
11	95.33399963	0	0	-3.966268778	-7.73463583	-51.66597748	1.0
12	95.33399963	0	0	-3.74537611	-7.453169823	-49.60162354	1.0
[LeftHandMiddle2]
10	36.98199844	0	0	-3.579779148	5.376423836	-67.29212189	1.0
11	36.98199844	0	0	-3.485723734	5.336260796	-66.2844696	1.0
12	36.98199844	0	0	-3.466375828	5.32776022	-66.07629395	1.0
[LeftHandMiddle3]
10	29.50900078	0	0	-1.362505555	3.747748613	-39.9460907	1.0
11	29.50900078	0	0	-1.307921886	3.681752205	-39.10374832	1.0
12	29.50900078	0	0	-1.30137229	3.673699379	-39.00164795	1.0
[LeftHandMiddle4]
10	28.3390007	0	0	0	0	0	1.0
11	28.3390007	0	0	0	0	0	1.0
12	28.3390007	0	0	0	0	0	1.0
[LeftHandRing1]
10	91.04499817	-0.4390000105	-18.65100098	-4.490964413	-2.674446106	-56.21272278	1.0
11	91.04499817	-0.4390000105	-18.65100098	-4.250496864	-2.197484732	-53.98330688	1.0
12	91.04499817	-0.4390000105	-18.65100098	-4.180312157	-1.441883922	-53.30908585	1.0
[LeftHandRing2]
10	31.54000092	0	0	-4.84420681	5.742291927	-80.28832245	1.0
11	31.54000092	0	0	-4.550739765	5.684556484	-77.34119415	1.0
12	31.54000092	0	0	-4.403683662	5.649683952	-75.85208893	1.0
[LeftHandRing3]
10	29.37700081	0	0	-1.128470898	3.449704885	-36.21908569	1.0
11	29.37700081	0	0	-1.053293705	3.344820976	-34.9505043	1.0
12	29.37700081	0	0	-1.036311388	3.320415497	-34.65822983	1.0
[LeftHandRing4]
10	26.47500038	0	0	0	0	0	1.0
11	26.47500038	0	0	0	0	0	1.0
12	26.47500038	0	0	0	0	0	1.0
[LeftHandPinky1]
10	80.77799988	-4.887000084	-38.06099701	-4.169043064	-1.265565991	-53.19607544	1.0
11	80.77799988	-4.887000084	-38.06099701	-4.218155384	0.3881241381	-53.02072906	1.0
12	80.77799988	-4.887000084	-38.06099701	-4.449919224	0.702175796	-54.27851105	1.0
[LeftHandPinky2]
10	36	0	0	-2.965215206	5.076910973	-60.55357361	1.0
11	36	0	0	-2.774161339	4.964621067	-58.37062454	1.0
12	36	0	0	-2.682277441	4.907056808	-57.30276489	1.0
[LeftHandPinky3]
10	21.14200211	0	0	-1.427645087	3.824033022	-40.93268204	1.0
11	21.14200211	0	0	-1.306012034	3.679406881	-39.07401657	1.0
12	21.14200211	0	0	-1.264432192	3.627696753	-38.42144394	1.0
[LeftHandPinky4]
10	19.75699997	0	0	0	0	0	1.0
11	19.75699997	0	0	0	0	0	1.0
12	19.75699997	0	0	0	0	0	1.0
[RightShoulder]
10	-45.70000076	109.4620056	-26.28000069	0.7520569563	-0.01476551779	11.55252266	1.0
11	-45.70000076	109.4620056	-26.28000069	1.395320296	4.234059811	8.047664642	1.0
12	-45.70000076	109.4620056	-26.28000069	2.309962273	9.03589344	7.969186306	1.0
[RightArm]
10	-105.9280014	-5.248000145	-22.32099915	35.24384308	-37.3270607	33.8192482	1.0
11	-105.9280014	-5.248000145	-22.32099915	48.26483154	-43.71740723	16.0415287	1.0
12	-105.9280014	-5.248000145	-22.32099915	45.20449448	-48.96219635	10.7149725	1.0
[RightForeArm]
10	-278.414978	0	0	-3.489024311e-05	71.88222504	-2.746149403e-05	1.0
11	-278.414978	0	0	7.535466284e-05	84.97425079	4.683399311e-05	1.0
12	-278.414978	0	0	3.051760359e-05	91.57907867	0.0002593994141	1.0
[RightHand]
10	-283.2879944	0	0.0009999999311	16.13716698	3.244712114	1.378250122	1.0
11	-283.2879944	0	0.0009999999311	6.749163151	-1.30263865	-0.1026346833	1.0
12	-283.2879944	0	0.0009999999311	3.492163658	-3.033144236	-1.916100025	1.0
[RightHandPinky1]
10	-80.76699829	-4.885000229	-38.06000137	-9.598323822	-1.233992338	90.09658051	1.0
11	-80.76699829	-4.885000229	-38.06000137	-9.57244873	-1.155632138	90.40302277	1.0
12	-80.76699829	-4.885000229	-38.06000137	-9.418413162	-1.016581178	90.16742706	1.0
[RightHandPinky2]
10	-36	0	0.0009999999311	-3.791596889	-4.554064274	79.5704422	1.0
11	-36	0	0.0009999999311	-3.702706814	-4.536818504	78.44896698	1.0
12	-36	0	0.0009999999311	-3.5699265	-4.507684231	76.76496887	1.0
[RightHandPinky3]
10	-21.14200211	0	0	-2.888044596	-4.290836811	67.87340546	1.0
11	-21.14200211	0	0	-2.857819557	-4.278445721	67.46885681	1.0
12	-21.14200211	0	0	-2.798949718	-4.253612041	66.67747498	1.0
[RightHandPinky4]
10	-19.75699997	0	0	0	0	0	1.0
11	-19.75699997	0	0	0	0	0	1.0
12	-19.75699997	0	0	0	0	0	1.0
[RightHandRing1]
10	-91.03599548	-0.4390000105	-18.65100098	-6.136185646	0.7793939114	80.80461121	1.0
11	-91.03599548	-0.4390000105	-18.65100098	-6.159797192	0.9360524416	81.07034302	1.0
12	-91.03599548	-0.4390000105	-18.65100098	-6.179682255	1.63004005	81.27401733	1.0
[RightHandRing2]
10	-31.54000092	0	0	-3.513906479	-4.494156361	76.03141785	1.0
11	-31.54000092	0	0	-3.475809097	-4.484532356	75.54475403	1.0
12	-31.54000092	0	0	-3.277500868	-4.428845406	72.9930191	1.0
[RightHandRing3]
10	-29.37700081	0	0	-0.9787032604	-2.849027872	37.91107941	1.0
11	-29.37700081	0	0	-0.9702852368	-2.838206053	37.74142456	1.0
12	-29.37700081	0	0	-0.959605515	-2.824361324	37.52519989	1.0
[RightHandRing4]
10	-26.47500038	0	0	0	0	0	1.0
11	-26.47500038	0	0	0	0	0	1.0
12	-26.47500038	0	0	0	0	0	1.0
[RightHandMiddle1]
10	-95.32500458	0	0	-4.808237076	4.84537077	65.98214722	1.0
11	-95.32500458	0	0	-4.792422295	6.264084816	65.80638885	1.0
12	-95.32500458	0	0	-4.668683529	6.467291355	64.45572662	1.0
[RightHandMiddle2]
10	-36.98199844	0	0	-3.186574697	-4.400092602	71.81179047	1.0
11	-36.98199844	0	0	-3.22564292	-4.412705898	72.32022095	1.0
12	-36.98199844	0	0	-3.251780748	-4.42092514	72.65976715	1.0
[RightHandMiddle3]
10	-29.50900078	0	0	-1.675396323	-3.568565369	50.31281662	1.0
11	-29.50900078	0	0	-1.684898376	-3.576414347	50.46545792	1.0
12	-29.50900078	0	0	-1.678015113	-3.57073307	50.35487747	1.0
[RightHandMiddle4]
10	-28.3390007	0	0.0009999999311	0	0	0	1.0
11	-28.3390007	0	0.0009999999311	0	0	0	1.0
12	-28.3390007	0	0.0009999999311	0	0	0	1.0
[RightHandIndex1]
10	-91.08300018	-5.167999744	22.60099792	-1.623955011	1.163012981	61.47007751	1.0
11	-91.08300018	-5.167999744	22.60099792	-1.43516016	1.504920244	60.75877762	1.0
12	-91.08300018	-5.167999744	22.60099792	-1.622094154	1.150877357	60.01005173	1.0
[RightHandIndex2]
10	-36.76399994	0	0	-2.285840988	-3.994142294	59.55150986	1.0
11	-36.76399994	0	0	-2.304121017	-4.004808426	59.81352234	1.0
12	-36.76399994	0	0	-2.202093124	-3.943837404	58.34170151	1.0
[RightHandIndex3]
10	-28.83100128	0	0	-0.834817946	-2.654184818	34.91456604	1.0
11	-28.83100128	0	0	-0.8373751044	-2.657838821	34.9698143	1.0
12	-28.83100128	0	0	-0.8256047964	-2.640944004	34.71493912	1.0
[RightHandIndex4]
10	-23.92700005	0	0	0	0	0	1.0
11	-23.92700005	0	0	0	0	0	1.0
12	-23.92700005	0	0	0	0	0	1.0
[RightHandThumb1]
10	-24.64799881	-15.72700024	26.82600021	-10.80079556	1.639939547	-1.271696329	1.0
11	-24.64799881	-15.72700024	26.82600021	-10.80079556	1.639939547	-1.271696329	1.0
12	-24.64799881	-15.72700024	26.82600021	-10.80079556	1.639939547	-1.271696329	1.0
[RightHandThumb2]
10	-32.29800034	-18.64699936	18.64699936	21.6707325	-30.56921959	-4.277744293	1.0
11	-32.29800034	-18.64699936	18.64699936	22.00141907	-31.50729561	-4.274977207	1.0
12	-32.29800034	-18.64699936	18.64699936	22.16363716	-32.78723526	-4.186215401	1.0
[RightHandThumb3]
10	-26.52600098	-15.31399918	15.31399918	-16.55413246	13.9201107	-3.338515759	1.0
11	-26.52600098	-15.31399918	15.31399918	-16.50981903	13.5319767	-2.786460161	1.0
12	-26.52600098	-15.31399918	15.31399918	-16.3396225	14.6642313	-3.880089283	1.0
[RightHandThumb4]
10	-19.54599953	-11.28499985	11.28499985	0	0	0	1.0
11	-19.54599953	-11.28499985	11.28499985	0	0	0	1.0
12	-19.54599953	-11.28499985	11.28499985	0	0	0	1.0
[LeftUpLeg]
10	82.07800293	-67.51699829	-15.99599934	-24.69609833	5.125104427	7.239037514	1.0
11	82.07800293	-67.51699829	-15.99599934	-4.089578152	8.126928329	13.5158987	1.0
12	82.07800293	-67.51699829	-15.99599934	9.030199051	8.720571518	13.22237301	1.0
[LeftLeg]
10	0	-443.7049866	2.845999956	56.26927567	-1.772083282	0.66988796	1.0
11	0	-443.7049866	2.845999956	32.81356049	-1.769937634	2.431433678	1.0
12	0	-443.7049866	2.845999956	22.92384338	-0.3508637249	2.911846161	1.0
[LeftFoot]
10	0	-444.2789917	-29.8219986	-36.08008194	-0.7571077347	-7.25550127	1.0
11	0	-444.2789917	-29.8219986	-4.131587505	0.2961650193	-9.567599297	1.0
12	0	-444.2789917	-29.8219986	12.09525681	0.2028769255	-9.137432098	1.0
[LeftToeBase]
10	0	-87.28699493	107.1060028	-14.06132221	2.646575012e-06	2.130840812e-06	1.0
11	0	-87.28699493	107.1060028	-39.65352249	-3.856473446	-5.841174603	1.0
12	0	-87.28699493	107.1060028	-5.028063774	5.956467703e-06	2.393561317e-06	1.0
[RightUpLeg]
10	-82.07800293	-67.51699829	-15.99599934	-85.82199097	-6.739467621	2.126895666	1.0
11	-82.07800293	-67.51699829	-15.99599934	-93.42689514	-0.1713901013	1.99610281	1.0
12	-82.07800293	-67.51699829	-15.99599934	-91.07574463	6.200154305	2.521730185	1.0
[RightLeg]
10	0	-443.7049866	2.861999989	128.6576385	-2.72620368	2.829957008	1.0
11	0	-443.7049866	2.861999989	106.9876938	-2.675480127	3.222764492	1.0
12	0	-443.7049866	2.861999989	79.30525208	-2.055539131	3.885600567	1.0
[RightFoot]
10	0	-444.2770081	-29.83799934	-6.334808826	0.2621710896	5.156924725	1.0
11	0	-444.2770081	-29.83799934	-6.946211338	0.2886032462	4.647098541	1.0
12	0	-444.2770081	-29.83799934	-6.70473671	0.4216893315	6.622214794	1.0
[RightToeBase]
10	0	-87.28699493	107.1060028	1.752655625	-3.978020231e-06	-6.037480915e-08	1.0
11	0	-87.28699493	107.1060028	1.276477337	4.654177246e-06	4.613518456e-07	1.0
12	0	-87.28699493	107.1060028	1.502267838	-2.880232387e-06	1.840213883e-07	1.0
[EndOfFile]
